<svg width="512" height="589" viewBox="0 0 512 589" fill="none" xmlns="http://www.w3.org/2000/svg">
<rect x="144.929" y="107.255" width="151.682" height="151.682" transform="rotate(-45 144.929 107.255)" fill="#00635A"/>
<rect x="144.929" y="107.255" width="151.682" height="151.682" transform="rotate(-45 144.929 107.255)" fill="#00635A"/>
<path fill-rule="evenodd" clip-rule="evenodd" d="M423.7 157.306L423.595 157.157L198.989 314.428L252.528 390.89L451.563 251.524L423.7 157.306Z" fill="#00635A"/>
<path fill-rule="evenodd" clip-rule="evenodd" d="M476.361 298.206L476.183 297.952L199.009 492.032L252.548 568.494L504.01 392.418L476.112 298.082L476.361 298.206Z" fill="#00A483"/>
<path fill-rule="evenodd" clip-rule="evenodd" d="M52.5234 250.967L79.522 159.673L81.2846 157.155L291.761 304.532L291.928 304.416L333.979 333.86L252.373 391.001L252.237 390.808L52.5234 250.967Z" fill="#00A483"/>
<path fill-rule="evenodd" clip-rule="evenodd" d="M0 391.764L26.998 300.471L28.7616 297.953L297.646 486.227L334.445 511.076L252.578 568.46L252.498 568.35L252.397 568.494L0 391.764Z" fill="#00E4C9"/>
</svg>
